<?xml version="1.0" encoding="UTF-8"?>
<svg width="1200" height="675" viewBox="0 0 1200 675" xmlns="http://www.w3.org/2000/svg">
  <defs>
    <linearGradient id="bg" x1="0" y1="0" x2="1200" y2="675" gradientUnits="userSpaceOnUse">
      <stop stop-color="#FFFFFF"/>
      <stop offset="1" stop-color="#EEF2FF"/>
    </linearGradient>
    <linearGradient id="accent" x1="0" y1="0" x2="0" y2="1">
      <stop stop-color="#f07a2f" stop-opacity="0.25"/>
      <stop offset="1" stop-color="#f07a2f" stop-opacity="0.06"/>
    </linearGradient>
  </defs>
  <rect width="1200" height="675" rx="36" fill="url(#bg)"/>
  <circle cx="980" cy="160" r="150" fill="url(#accent)"/>
  <circle cx="220" cy="520" r="140" fill="url(#accent)"/>

  <rect x="80" y="86" width="680" height="210" rx="22" fill="#FFFFFF" opacity="0.95"/>
  <text x="120" y="150" font-family="Arial, Helvetica, sans-serif" font-size="42" font-weight="700" fill="#111827">Family Cybersecurity</text>
  <text x="120" y="205" font-family="Arial, Helvetica, sans-serif" font-size="26" font-weight="600" fill="#f07a2f">Practical protections for home environments</text>

  <g transform="translate(780 260)">
    <rect x="0" y="40" width="340" height="300" rx="22" fill="#FFFFFF" opacity="0.96"/>
    <path d="M170 78c30 0 56 14 56 14v40c0 48-56 72-56 72s-56-24-56-72V92s26-14 56-14z" fill="#111827" opacity="0.92"/>
    <path d="M170 94c20 0 38 9 38 9v28c0 30-38 45-38 45s-38-15-38-45v-28s18-9 38-9z" fill="#f07a2f"/>

    <circle cx="110" cy="180" r="30" fill="#111827"/>
    <rect x="84" y="210" width="52" height="110" rx="22" fill="#f07a2f"/>

    <circle cx="235" cy="180" r="30" fill="#111827"/>
    <rect x="209" y="210" width="52" height="110" rx="22" fill="#111827"/>

    <circle cx="172" cy="215" r="22" fill="#111827"/>
    <rect x="154" y="238" width="36" height="82" rx="18" fill="#E5E7EB"/>
  </g>
</svg>
