<?xml version="1.0" encoding="UTF-8"?>
<svg width="1200" height="675" viewBox="0 0 1200 675" xmlns="http://www.w3.org/2000/svg">
  <defs>
    <linearGradient id="bg" x1="0" y1="0" x2="1200" y2="675" gradientUnits="userSpaceOnUse">
      <stop stop-color="#FFFFFF"/>
      <stop offset="1" stop-color="#EEF2FF"/>
    </linearGradient>
    <linearGradient id="accent" x1="0" y1="0" x2="0" y2="1">
      <stop stop-color="#f07a2f" stop-opacity="0.25"/>
      <stop offset="1" stop-color="#f07a2f" stop-opacity="0.06"/>
    </linearGradient>
  </defs>
  <rect width="1200" height="675" rx="36" fill="url(#bg)"/>
  <circle cx="1020" cy="520" r="150" fill="url(#accent)"/>
  <circle cx="220" cy="160" r="140" fill="url(#accent)"/>

  <rect x="80" y="86" width="680" height="210" rx="22" fill="#FFFFFF" opacity="0.95"/>
  <text x="120" y="150" font-family="Arial, Helvetica, sans-serif" font-size="42" font-weight="700" fill="#111827">Home Network VLANs</text>
  <text x="120" y="205" font-family="Arial, Helvetica, sans-serif" font-size="26" font-weight="600" fill="#f07a2f">Segmentation for security and performance</text>

  <g transform="translate(740 250)">
    <rect x="0" y="48" width="400" height="300" rx="24" fill="#FFFFFF" opacity="0.96"/>
    <rect x="70" y="195" width="260" height="46" rx="23" fill="#111827"/>
    <circle cx="110" cy="218" r="6" fill="#FFFFFF"/>
    <circle cx="134" cy="218" r="6" fill="#FFFFFF"/>
    <circle cx="158" cy="218" r="6" fill="#FFFFFF"/>
    <rect x="120" y="110" width="10" height="86" rx="5" fill="#111827"/>
    <rect x="270" y="110" width="10" height="86" rx="5" fill="#111827"/>
    <path d="M200 138c-60 0-108 38-108 38" stroke="#f07a2f" stroke-width="10" stroke-linecap="round" fill="none"/>
    <path d="M200 138c60 0 108 38 108 38" stroke="#f07a2f" stroke-width="10" stroke-linecap="round" fill="none"/>
    <path d="M200 168c-33 0-64 22-64 22" stroke="#f07a2f" stroke-width="10" stroke-linecap="round" fill="none"/>
    <path d="M200 168c33 0 64 22 64 22" stroke="#f07a2f" stroke-width="10" stroke-linecap="round" fill="none"/>
    <circle cx="200" cy="197" r="10" fill="#f07a2f"/>
  </g>
</svg>
