<?xml version="1.0" encoding="UTF-8"?>
<svg width="980" height="680" viewBox="0 0 980 680" fill="none" xmlns="http://www.w3.org/2000/svg">
  <defs>
    <linearGradient id="g1" x1="0" y1="0" x2="980" y2="680" gradientUnits="userSpaceOnUse">
      <stop stop-color="#FFFFFF"/>
      <stop offset="1" stop-color="#EEF2FF"/>
    </linearGradient>
    <linearGradient id="a" x1="0" y1="0" x2="0" y2="1">
      <stop stop-color="#f07a2f" stop-opacity="0.25"/>
      <stop offset="1" stop-color="#f07a2f" stop-opacity="0.06"/>
    </linearGradient>
    <filter id="shadow" x="-20%" y="-20%" width="140%" height="140%">
      <feDropShadow dx="0" dy="18" stdDeviation="20" flood-color="#000000" flood-opacity="0.10"/>
    </filter>
  </defs>

  <rect x="0" y="0" width="980" height="680" rx="28" fill="url(#g1)"/>
  <circle cx="770" cy="170" r="160" fill="url(#a)"/>
  <circle cx="210" cy="520" r="140" fill="url(#a)"/>

  <g filter="url(#shadow)">
    <rect x="90" y="140" width="420" height="300" rx="18" fill="#FFFFFF"/>
    <rect x="90" y="140" width="420" height="56" rx="18" fill="#F9FAFB"/>
    <circle cx="130" cy="168" r="8" fill="#f07a2f"/>
    <circle cx="156" cy="168" r="8" fill="#E5E7EB"/>
    <circle cx="182" cy="168" r="8" fill="#E5E7EB"/>

    <path d="M300 225c48 0 90 22 90 22v62c0 74-90 110-90 110s-90-36-90-110v-62s42-22 90-22z" fill="#111827"/>
    <path d="M300 247c34 0 64 16 64 16v44c0 52-64 78-64 78s-64-26-64-78v-44s30-16 64-16z" fill="#f07a2f"/>
    <path d="M300 279c12 0 22 10 22 22 0 8-5 16-12 19v22h-20v-22c-7-3-12-11-12-19 0-12 10-22 22-22z" fill="#FFFFFF"/>

    <rect x="130" y="372" width="340" height="12" rx="6" fill="#E5E7EB"/>
    <rect x="130" y="394" width="270" height="12" rx="6" fill="#E5E7EB"/>
  </g>

  <g filter="url(#shadow)">
    <rect x="560" y="270" width="330" height="240" rx="18" fill="#FFFFFF"/>
    <rect x="560" y="270" width="330" height="56" rx="18" fill="#F9FAFB"/>
    <circle cx="600" cy="298" r="8" fill="#f07a2f"/>
    <circle cx="626" cy="298" r="8" fill="#E5E7EB"/>
    <circle cx="652" cy="298" r="8" fill="#E5E7EB"/>

    <rect x="610" y="370" width="230" height="26" rx="13" fill="#111827"/>
    <circle cx="640" cy="383" r="4.5" fill="#FFFFFF"/>
    <circle cx="660" cy="383" r="4.5" fill="#FFFFFF"/>
    <circle cx="680" cy="383" r="4.5" fill="#FFFFFF"/>
    <rect x="640" y="332" width="10" height="44" rx="5" fill="#111827"/>
    <rect x="800" y="332" width="10" height="44" rx="5" fill="#111827"/>

    <path d="M725 340c-55 0-98 34-98 34" stroke="#f07a2f" stroke-width="10" stroke-linecap="round"/>
    <path d="M725 340c55 0 98 34 98 34" stroke="#f07a2f" stroke-width="10" stroke-linecap="round"/>
    <path d="M725 370c-28 0-54 18-54 18" stroke="#f07a2f" stroke-width="10" stroke-linecap="round"/>
    <path d="M725 370c28 0 54 18 54 18" stroke="#f07a2f" stroke-width="10" stroke-linecap="round"/>
    <circle cx="725" cy="402" r="10" fill="#f07a2f"/>
    <rect x="610" y="430" width="190" height="12" rx="6" fill="#E5E7EB"/>
  </g>
</svg>
